<?xml version="1.0" encoding="UTF-8" standalone="no"?>
<!-- Created with Inkscape (http://www.inkscape.org/) -->

<svg
   version="1.1"
   id="svg1"
   width="3700"
   height="1100"
   viewBox="0 0 3700.0002 1100"
   sodipodi:docname="sanafe_logo.svg"
   xml:space="preserve"
   inkscape:version="1.4 (86a8ad7, 2024-10-11)"
   inkscape:export-filename="..\..\sanafe_logo_vector.png"
   inkscape:export-xdpi="57.67654"
   inkscape:export-ydpi="57.67654"
   xmlns:inkscape="http://www.inkscape.org/namespaces/inkscape"
   xmlns:sodipodi="http://sodipodi.sourceforge.net/DTD/sodipodi-0.dtd"
   xmlns="http://www.w3.org/2000/svg"
   xmlns:svg="http://www.w3.org/2000/svg"><defs
     id="defs1" /><sodipodi:namedview
     id="namedview1"
     pagecolor="#ffffff"
     bordercolor="#666666"
     borderopacity="1.0"
     inkscape:showpageshadow="2"
     inkscape:pageopacity="0.0"
     inkscape:pagecheckerboard="0"
     inkscape:deskcolor="#d1d1d1"
     inkscape:zoom="0.15582276"
     inkscape:cx="-41.714059"
     inkscape:cy="1042.8515"
     inkscape:window-width="3840"
     inkscape:window-height="2054"
     inkscape:window-x="3733"
     inkscape:window-y="130"
     inkscape:window-maximized="1"
     inkscape:current-layer="g3"
     showgrid="false" /><g
     inkscape:groupmode="layer"
     inkscape:label="Image"
     id="g1"
     transform="translate(-183.45167,-150.74443)"><g
       id="g2"><g
         id="g3"
         transform="translate(50,22)"><path
           style="fill:#b44b27;stroke:none"
           d="m 872.98735,185.50721 v 1.33334 c -22.7635,-0.97722 -45.0065,-8.23145 -68,-7.99488 -5.5059,0.0566 -22.5137,0.85157 -18.2829,10.52678 2.4245,5.54443 10.5467,7.82185 15.6162,10.03393 11.1943,4.88452 27.2583,9.5494 36,18.10083 -13.8711,0 -27.5624,-0.29557 -41.3333,1.54525 -5.0015,0.66854 -13.1089,2.40763 -12.4506,9.11735 0.8635,8.80151 17.789,11.61409 24.4506,14.1049 27.1907,10.16674 51.3065,24.25626 77.3333,36.56583 -7.4724,10.98641 -14.8087,21.47306 -17.7797,34.66666 -4.6599,20.69279 -2.5992,45.85165 -21.1184,60.88989 -6.0481,4.9113 -19.1945,1.67847 -26.4352,0.82414 -16.9479,-1.99967 -34.9378,-0.3807 -52,-0.3807 -20.6112,0 -41.1606,3.40821 -61.3333,7.46713 -6.6723,1.34253 -18.8815,7.13785 -25.3138,4.37133 -6.536,-2.81111 -11.6809,-11.80224 -16.0196,-17.17179 -10.5504,-13.05745 -21.6358,-25.71981 -32.3333,-38.66666 -35.0915,-42.47038 -69.1433,-86.7701 -122.3333,-106.91463 -34.3428,-13.00659 -72.1619,-9.37378 -108,-7.80452 -10.4012,0.4554 -29.5642,-3.88631 -38.3621,2.52986 -6.7945,4.95508 -2.7443,12.57121 2.4207,16.8169 9.6878,7.96329 25.2507,15.90869 37.2747,19.37239 v 1.33333 c -23.1574,0 -46.2675,-0.36556 -69.3333,1.21403 -7.446,0.50993 -20.9894,-2.49698 -22.3035,8.1399 -1.3848,11.20914 14.7541,21.18172 22.3035,27.09667 16.5929,13.00057 34.4958,24.40048 53.3333,33.88583 10.0246,5.04777 23.9501,8.51863 32,16.33024 -9.7163,0 -36.6113,-4.64624 -42.8024,4.37142 -4.6347,6.75065 3.4494,13.79256 8.1368,17.67691 14.0079,11.60808 29.5598,21.69287 45.3323,30.71501 46.046,26.33911 97.2854,36.6534 149.3333,43.23665 -8.4171,9.11751 -32.1199,15.64494 -34.0977,29.30867 -1.2934,8.93531 11.1157,8.33415 16.7644,7.79834 19.5171,-1.85123 39.0298,-6.42732 58.6667,-6.44034 v 1.33333 c -5.488,2.39876 -10.0953,5.63973 -14.6667,9.51237 -3.0676,2.59871 -6.2003,5.15421 -9.2078,7.82096 -8.4918,7.5297 -6.4638,15.60954 5.2078,17.08643 14.9238,1.88842 35.5897,-8.57219 49.395,-3.823 10.974,3.77514 -5.2974,19.26245 -10.7283,20.69547 -6.1694,1.62793 -15.5241,-3.55998 -21.3334,-5.51546 -16.9503,-5.70565 -40.362,-19.80973 -58.6666,-17.47331 -15.1835,1.93799 -33.0896,15.70451 -46.6667,22.70785 -4.3134,2.22493 -12.8648,9.29882 -17.9609,8.03499 -4.7124,-1.1687 -8.2435,-11.26131 -10.606,-15.0463 -7.1278,-11.41976 -16.3913,-21.35075 -26.0998,-30.61418 -4.8932,-4.66886 -13.8194,-13.20255 -20.9094,-7.24796 -6.0225,5.05802 -1.9503,13.33569 2.3209,17.80965 12.5286,13.12337 29.3295,25.83919 34.5885,44.05248 -13.5391,-3.90014 -23.7834,-12.82283 -34.6666,-21.31477 -4.6546,-3.63184 -11.169,-10.32031 -17.3324,-10.79737 -12.0503,-0.93278 -10.3063,13.77214 -4.8765,19.73047 12.5733,13.79712 29.1371,20.75822 44.8755,29.71501 -25.7704,7.24178 -53.1872,0.28385 -76,-12.56584 -6.5924,-3.7133 -17.2559,-10.12524 -22.4218,-0.62248 -6.4376,11.84204 13.326,19.96004 21.0885,23.70996 24.4832,11.82756 55.9332,18.73438 82.6667,10.75505 12.7911,-3.81787 18.3111,-12.76766 28.0524,-20.7561 13.4715,-11.04737 32.5022,-18.22461 47.9476,-26.19857 6.1145,-3.15674 13.0116,-9.37565 20,-10.08333 13.4635,-1.36337 35.3741,11.05761 48,15.84668 4.5177,1.71362 12.0915,3.70703 14.6049,8.21403 2.8541,5.11808 -1.8783,12.80021 -1.8457,18.36726 0.072,12.3204 12.2543,15.24398 21.9074,16.74797 23.5813,3.67399 47.7788,-0.62346 69.3333,-10.49284 10.7968,-4.9436 20.9401,-13.22542 32,-17.16455 9.0988,-3.24064 20.9978,-1.18628 30.6667,-2.80461 8.443,-1.41316 24.1142,-10.66259 32,-8.39607 7.5316,2.16471 14.2512,12.65893 20,17.72941 17.6805,15.59432 39.7538,33.10318 53.3333,52.38069 -8.0131,3.03817 -31.1877,19.35246 -15.822,27.95784 7.2742,4.07382 15.5931,-3.72778 21.1554,-7.49902 12.4471,-8.43905 29.7488,-20.80916 45.3333,-21.60083 22.6877,-1.15242 50.2689,5.23193 70.66665,14.90234 9.5064,4.50692 22.7193,19.30062 33.3282,18.64396 15.5014,-0.95947 7.3342,-18.05729 0,-23.35286 -17.5914,-12.70866 -37.9972,-18.62622 -58.66555,-23.7181 18.06905,-8.7076 42.81765,-5.6971 61.33325,0.034 8.8446,2.73771 23.168,12.58447 31.6234,4.72111 8.1473,-7.57682 -0.8353,-14.42505 -7.6234,-17.74276 -14.5076,-7.09065 -31.9123,-11.12361 -48,-12.22639 -26.74585,-1.83334 -54.51595,6.5118 -79.99995,13.78401 -8.8833,2.535 -25.1707,12.67318 -34.1008,11.06893 -7.0859,-1.27295 -14.0441,-12.0153 -19.2325,-16.59155 -17.9746,-15.85376 -40.8623,-32.78605 -54.6667,-52.38069 44.2901,-14.1128 64.3472,-70.03581 96.0051,-99.8807 33.1776,-31.2775 79.88225,-56.1879 125.32815,-63.68619 21.3211,-3.51782 43.7905,-1.76644 65.3333,-1.76644 h 66.6667 c 7.512,-0.003 19.0378,-0.18709 18.8971,-10.66772 -0.17,-12.68058 -22.7458,-19.72502 -32.2304,-23.79834 -36.6238,-15.7286 -74.3762,-20.15617 -112,-31.23869 -11.1035,-3.27067 -21.3475,-18.30892 -29.3333,-26.29524 -31.51485,-31.51693 -43.75855,-73.04997 -85.33335,-95.58846 -27.5216,-14.92 -55.9147,-19.75822 -86.6666,-21.86417 -7.3081,-0.50049 -24.0616,-3.71184 -29.856,2.25716 -4.8489,4.99503 1.8051,10.49601 5.8622,12.80045 11.9585,6.79273 25.77,13.70386 38.6604,18.39502 m 22.6667,-9.33333 c 43.1322,14.5682 74.1596,36.30704 96,77.33333 -18.3555,-2.4738 -34.4555,-7.81983 -53.3333,-3.99487 -10.8968,2.20784 -25.7545,13.8138 -36,13.23868 -5.4206,-0.30428 -11.193,-5.2115 -16,-7.51334 -13.2093,-6.3252 -26.6435,-11.78207 -40,-17.73047 v -1.33333 c 16.9496,0.34985 34.084,3.89078 50.6666,7.19954 4.357,0.86938 15.4455,3.65161 14.6173,-4.55347 -0.5544,-5.49292 -7.8141,-9.17496 -11.9506,-11.70776 -11.0961,-6.79427 -27.5548,-11.75342 -36,-21.60498 15.277,2.89168 30.5407,5.03394 45.3333,9.98763 8.1517,2.72982 16.6031,8.14185 24.9815,9.75309 4.5391,0.87289 7.1858,-3.71468 5.9259,-7.74072 -3.8495,-12.30062 -22.446,-22.84204 -32.2407,-30.17285 -3.3358,-2.49666 -12.7652,-6.81657 -12,-11.16048 m -242.6666,210.66667 c -9.6919,-2.2775 -18.4024,-9.93245 -26.6666,-15.32714 -14.9609,-9.7662 -30.2482,-19.03394 -45.3334,-28.60189 -55.8657,-35.43351 -110.7502,-74.5804 -169.3333,-105.40429 13.6971,-8.20492 44.5467,-3.14111 60,-1.40023 61.159,6.88989 98.5824,52.55184 136.3755,96.06689 15.0727,17.35474 33.426,34.69409 44.9578,54.66666 M 1151.65,342.84054 c -34.1031,-0.70386 -70.0368,-4.4524 -104,0.40022 -40.7764,5.82609 -85.32975,27.97453 -117.33335,53.21403 -32.2117,25.40364 -49.4521,61.5035 -77.3858,90.38061 -21.4361,22.16007 -49.0923,36.34774 -78.6142,44.00512 1.1849,-6.66796 9.1778,-18.29378 -0.079,-22.55248 -7.568,-3.48169 -16.6538,8.78255 -21.2541,13.16666 -15.7101,14.97168 -35.6628,26.40381 -56,33.79224 -13.4462,4.88492 -51.0254,15.07853 -41.7294,-12.40642 12.2515,-36.22338 50.7746,-31.21386 80.3961,-36.56583 33.0226,-5.96647 65.2913,-20.40047 90.6666,-42.48665 13.6147,-11.84994 24.8386,-27.19621 29.0186,-44.94751 1.7992,-7.64095 -0.1998,-16.80485 2.4526,-24 4.4051,-11.94962 16.9045,-20.60766 21.7757,-33.33333 6.303,-16.46622 4.5714,-34.47078 11.1698,-50.66666 16.2808,-39.96191 57.7291,-47.29834 95.5833,-38.65226 15.65285,3.57519 28.39245,11.94474 39.94745,22.87858 8.9272,8.44726 12.6787,17.07072 25.3858,19.92797 25.0217,5.62622 50.1347,8.74276 74.6667,16.73869 7.6192,2.4834 20.3974,4.52848 25.3334,11.10702 m -509.33335,63.99999 c -27.0187,-0.6324 -56.3302,-19.9143 -81.3333,-29.26643 -73.9903,-27.67521 -144.7303,-58.74699 -212,-100.06689 l 42.6667,-1.33334 45.3333,0.86524 46.6667,28.16463 92,57.63679 46.6667,28.92285 20,15.07715 m 343.9999,-118.07917 c -34.4617,5.42423 -28.2576,59.57405 6.6667,54.80655 35.20345,-4.80566 29.23145,-60.45694 -6.6667,-54.80655 m -767.9999,7.98453 c -8.3556,1.25464 -19.4742,11.30355 -7.855,17.85596 6.8049,3.83748 18.9363,1.57202 26.5216,1.57202 h 58.6667 c 7.4282,0 18.4874,1.99414 25.1358,-1.94238 12.283,-7.27279 -2.1387,-17.59546 -10.4691,-18.00415 -29.1062,-1.42798 -63.1992,-3.80599 -92,0.51855 m 770.6677,10.95777 c 10.9445,-1.31031 11.91765,15.92838 1.3271,16.92081 -10.5998,0.99333 -11.8783,-15.65763 -1.3271,-16.92081 m -730.6472,48.12662 c -9.1761,3.61898 -9.6798,15.00659 0,18.13989 20.8917,6.76237 52.6671,0.87036 74.6461,0.87036 7.1272,0 19.0054,2.23096 25.0288,-2.32308 9.1493,-6.91731 0.9893,-16.66829 -7.6954,-17.53702 -20.4727,-2.04777 -42.0863,-0.13989 -62.6667,-0.13989 -8.7035,0 -21.1257,-2.2391 -29.3128,0.98974 m 351.9795,63.01025 v 1.33333 c -66.6024,0 -135.2614,-19.33805 -190.6667,-55.99999 21.8758,-9.17969 55.5927,0.22119 76,8.52881 38.1785,15.54207 76.5398,30.49576 114.6667,46.13785 m 85.3333,73.33333 c 4.5762,-7.00789 18.6577,-9.15413 19.5802,-18.6626 0.7795,-8.03426 -8.6828,-9.17032 -14.2469,-7.79109 -20.9188,5.18546 -41.7156,10.7854 -62.6666,15.78702 7.529,-9.62418 31.6385,-18.94156 33.0987,-31.9794 0.8482,-7.57365 -9.3716,-8.09733 -14.4321,-8 -16.293,0.31323 -33.3465,4.96728 -49.3333,7.97941 11.0795,-11.99284 31.8482,-19.43425 46.6667,-25.89917 41.1899,-17.97013 81.4908,-28.7675 126.6666,-28.7675 13.0036,0 25.7294,0.32805 38.6667,1.21403 4.0934,0.28036 10.4041,-1.11035 13.9145,1.48967 8.9995,6.66544 0.6077,25.07641 -3.5246,31.96297 -14.5049,24.17252 -42.427,39.10205 -67.7233,49.51855 -21.4981,8.85246 -44.5376,7.8798 -66.6666,13.14811 m -174.6667,538.66654 c 1.9679,24.0929 20.2529,43.7131 38.6667,57.502 40.4544,30.2941 99.0424,44.4892 149.3333,41.0454 15.1988,-1.0409 30.3283,-2.9346 45.3333,-5.5474 6.4877,-1.1296 14.8271,-4.8434 21.3334,-2.9671 27.1535,7.8308 57.5349,34.4157 75.429,55.3004 9.0785,10.5958 18.1376,28.5886 30.0247,35.8807 11.2687,6.9128 59.9554,6.27 56.3436,-14.5473 -3.2323,-18.6304 -27.2785,-37.0533 -37.7973,-52 66.0142,41.6565 152.13925,16.5193 191.39605,-49.3334 8.5167,-14.2867 14.2273,-30.312 17.1172,-46.6666 1.4125,-7.994 -0.8821,-17.7158 2.6369,-25.214 5.3016,-11.2963 19.1955,-19.3571 25.7336,-30.78594 19.4423,-33.98575 22.6877,-76.16829 11.2695,-113.33332 -9.8996,-32.22201 -31.6504,-51.23242 -48.6873,-78.66666 -6.1529,-9.90804 -6.1604,-25.00277 -11.8117,-36 -15.0386,-29.26481 -41.2333,-49.58284 -70.321,-63.65535 -14.2436,-6.89104 -30.87435,-11.8715 -46.66665,-13.4506 -8.0778,-0.8077 -19.1188,2.23828 -26.6666,-0.64502 -9.9807,-3.81283 -18.3774,-15.84693 -28,-21.42806 -21.4082,-12.41667 -47.424,-19.01864 -72,-20.70166 -21.6389,-1.48185 -44.3369,-0.11003 -65.3334,5.41984 -10.598,2.79126 -24.038,11.75626 -34.6666,11.9012 -10.9555,0.14942 -25.2108,-9.45646 -36,-12.44653 -20.0611,-5.55965 -41.9328,-7.18254 -62.6667,-6.27466 -39.5404,1.73137 -71.4383,19.18107 -107.9475,30.96297 -31.5036,10.16659 -61.7899,13.9209 -89.3858,34.98861 -11.1198,8.48942 -21.0207,18.37207 -28.856,29.99593 -4.6608,6.91446 -7.9161,17.70141 -14.1769,23.13476 -6.4115,5.56413 -16.3576,7.24007 -23.6338,11.61833 -18.8488,11.34179 -33.8515,26.06477 -44.7623,45.2469 -17.2484,30.32414 -9.5355,57.30957 -7.5216,89.33333 1.7047,27.10742 -6.2602,49.65657 6.9115,75.99999 31.4886,62.97714 127.0361,76.40114 185.3724,45.33324 m 200,-353.33322 c -4.7425,10.18425 -14.1923,17.89649 -19.5689,28 -8.6915,16.33268 -8.4311,34.04785 -8.4311,52 0,8.50423 -2.8801,24.68733 6.7397,29.23763 9.9612,4.71191 15.1149,-10.1049 14.8498,-17.23763 -0.5374,-14.46208 -2.9686,-32.72697 1.3714,-46.66667 10.0529,-32.28873 47.2798,-49.4982 78.3724,-54.30045 35.7796,-5.52612 87.0172,-4.63957 115.8807,20.86523 13.8763,12.26164 25.4036,29.07341 36.1193,44.10189 3.8356,5.37923 8.7242,15.72656 16,16.7644 6.4049,0.91358 10.5938,-5.73999 9.0011,-11.43107 -2.9783,-10.64233 -13.4199,-19.45434 -18.3344,-29.33333 9.4239,-2.7596 21.1828,0.19548 30.6667,2.13477 33.91765,6.93538 68.44265,31.65494 85.28085,61.86523 6.3552,11.40234 5.5408,24.76489 10.9372,35.99999 6.2463,13.00472 19.9825,22.52515 27.966,34.66667 24.6656,37.5118 36.3232,85.42 16.9116,127.99999 -20.47,44.90137 -65.0599,46.04297 -106.4291,58.69947 -22.50175,6.8843 -45.77955,17.4614 -69.33325,19.7408 -25.9282,2.5091 -50.2415,-3.8876 -76,3.463 -25.8088,7.3649 -45.0022,24.8909 -69.3333,34.8271 -41.7509,17.0498 -84.9334,19.8993 -129.3334,17.8837 -36.7515,-1.6684 -77.7127,-14.754 -106.6666,-37.5617 -13.3994,-10.555 -27.1843,-27.2459 -28,-45.0524 29.3398,6.9527 54.9763,21.415 85.3333,7.5833 7.9579,-3.6258 37.454,-24.2762 22.2953,-34.70051 -4.3563,-2.99572 -8.5128,1.5861 -11.6286,4.24891 -7.7062,6.5859 -15.3043,12.5658 -25.3333,15.0021 -37.2771,9.0556 -101.677,-19.10761 -87.5762,-66.60292 2.2141,-7.45744 21.4339,-4.19751 27.5762,-4.19751 14.6805,0 34.9746,-3.67578 49.0545,0.42382 13.127,3.82219 16.2114,19.54631 33.6121,14.52369 26.8612,-7.75334 24.3167,-45.26652 -2.6666,-50.32406 -17.385,-3.25854 -19,13.25757 -32.1245,16.23356 -9.716,2.20305 -21.9637,-0.20833 -31.8755,-0.59261 -12.6512,-0.49048 -25.8887,1.06893 -38.6667,1.06893 2.2815,-8.3418 6.0696,-16.60872 10.5689,-24 30.1426,-49.51684 86.6847,-38.77164 134.7644,-38.77164 20.0621,0 39.6883,-3.78988 58.6667,-10.11719 25.9033,-8.63615 55.8546,-24.1687 64,-52.44449 10.7014,0 38.6635,4.95109 45.8631,-4.30453 9.7434,-12.52588 -1.525,-38.1084 2.5607,-52.88989 1.4556,-5.26627 7.8626,-8.20801 11.2912,-12.1595 7.6003,-8.75969 8.5814,-20.71004 2.6522,-30.6451 -12.7351,-21.33919 -46.2399,-14.59741 -48.7675,10.66569 -1.527,15.26204 11.339,18.28092 16.2624,29.73356 3.927,9.13476 2.2385,31.57145 -0.5288,40.9331 l -28,-1.33333 c -0.1434,-17.32463 -7.5909,-32.08732 -20.001,-43.94645 -5.0083,-4.78589 -12.4841,-11.7216 -19.9259,-7.80974 -9.4611,4.97331 -5.6579,14.95492 0.067,21.03703 16.4193,17.44458 31.2773,37.62134 11.4218,59.93213 -3.2921,3.69913 -7.4435,6.64233 -11.5617,9.34871 -4.9987,3.28516 -12.3652,8.75667 -18.6667,8.51449 -16.7585,-0.64437 -25.6274,-28.34245 -41.3333,-33.05762 -7.9508,-2.38704 -18.4167,-0.68522 -26.6667,-0.68522 h -54.6666 c -10.5298,-41.65934 -69.8047,-13.62443 -47.1348,18.66569 7.6756,10.93278 21.5243,15.45231 33.8015,9.33431 4.9452,-2.46436 9.0456,-7.52865 14.6666,-8.37549 16.6719,-2.51172 36.3649,0.37549 53.3333,0.37549 6.7692,0 16.4594,-1.73332 22.6667,1.37036 8.4927,4.24634 17.2743,14.97453 22.6667,22.62964 -53.8623,15.17171 -111.0594,-11.5437 -161.3333,21.80761 -14.5962,9.68294 -27.1296,22.79915 -35.5844,38.19238 -3.872,7.04956 -6.3441,23.5721 -12.9743,27.96297 -5.0625,3.35262 -15.6353,0.30673 -20.7747,-1.75415 -17.3201,-6.94547 -13.3333,-29.92106 -13.3333,-44.87548 0,-5.27572 -1.4754,-13.26807 0.8045,-18.14714 3.7986,-8.1289 12.9339,-10.32226 15.5134,-20.51953 3.8463,-15.2054 -9.479,-29.52083 -24.3179,-30.53702 -16.2423,-1.11231 -30.6002,15.94173 -25.8014,31.87036 2.5769,8.55387 12.5702,12.2705 14.7109,20.12451 7.9666,29.22998 -12.9351,65.09928 25.7572,79.78808 7.8033,2.9624 15.8974,2.58317 24,4.0874 0,15.97233 1.2929,32.05403 8.3446,46.66666 2.0167,4.17913 9.2011,13.24074 5.4445,17.73044 -8.8203,10.5415 -38.4311,12.0304 -51.1225,13.0504 -57.4321,4.6161 -120,-20.6591 -120,-86.78083 12.4642,7.13745 20.9678,18.743 34.6667,24.91764 5.5215,2.48885 11.3488,4.22168 17.3333,5.16357 50.4156,7.93571 43.355,-61.2648 23.9424,-88.74788 -5.6113,-7.94409 -23.194,-30.81591 -34.4115,-20.90844 -4.1197,3.63859 -4.5822,8.46688 -1.106,12.68107 15.1673,18.38704 30.1137,28.54801 30.2408,54.89404 0.032,6.65071 2.3487,18.73177 -5.4105,21.86214 -6.3819,2.57471 -15.1255,-0.26563 -21.2552,-2.33643 -22.9421,-7.75048 -38.2697,-28.45084 -43.4331,-51.52571 -7.5674,-33.81836 4.8245,-70.10376 32.7665,-90.98665 12.3091,-9.19938 29.8792,-12.76066 40.895,-23.05241 15.5186,-14.49853 19.9512,-36.361 37.7716,-50.40234 26.0178,-20.50024 55.0222,-24.59285 85.3334,-34.69848 56.479,-18.82992 119.6587,-47.95394 178.6666,-16.86011 m -180,68 18.6667,-15.58236 38.6667,-1.75097 c 14.0822,40.61922 71.664,21.93066 58.9382,-18.66667 -5.8439,-18.64298 -29.4906,-26.85758 -45.5524,-15.85498 -5.9261,4.05957 -9.0557,13.55811 -16.1101,15.43115 -13.8889,3.68767 -32.1797,-4.55216 -45.2757,1.99585 -9.2238,4.6119 -12.8418,16.7937 -21.5649,21.12345 -4.5941,2.28044 -10.868,-1.16349 -15.7685,-1.01546 -11.9087,0.35987 -23.02,8.29265 -26.8631,19.65332 -13.2668,39.21761 47.1192,61.81844 57.8446,21.33333 2.4858,-9.3833 -0.5848,-17.70149 -2.9815,-26.66666 m 293.358,-37.94336 c 9.7617,-1.66268 12.5345,13.62468 2.5885,14.91349 -10.0012,1.29598 -12.3495,-13.25105 -2.5885,-14.91349 m -210.6337,1.29525 c 14.5821,-4.61426 24.163,16.52539 9.2551,22.32405 -14.3348,5.57569 -24.0791,-17.6333 -9.2551,-22.32405 m 390.60895,100.6481 c 0,12.89543 -5.036,39.49528 2.5247,50.28597 8.0003,11.4183 20.971,19.95833 30.8087,29.71916 2.8878,2.86531 8.958,7.26749 7.7242,11.99487 -2.3308,8.9305 -24.4831,32.30656 -33.0576,35.58235 -5.3046,2.02653 -11.7333,-0.14843 -17.3333,1.47014 -15.09125,4.36181 -22.67115,21.56966 -19.29425,36.28084 6.5548,28.5551 46.71885,30.4635 57.49075,4 4.4558,-10.94645 -4.7256,-24.66178 1.7284,-33.33333 8.8767,-11.9266 33.7008,-28.47844 34.5391,-44 1.2835,-23.76245 -37.0841,-37.54175 -46.427,-56.00512 -3.0397,-6.00708 -3.6628,-27.02857 0,-32.80868 8.3409,-13.16243 22.4478,-17.23535 15.0782,-36.51953 -9.459,-24.75195 -46.6355,-19.78108 -51.11515,5.33334 -14.5526,0 -39.4609,4.76814 -52,-3.31071 -17.7886,-11.4611 -16.0408,-37.98356 -41.3333,-37.98356 -27.2242,0 -35.0945,39.03043 -10.6656,50.37548 12.6368,5.86882 19.2662,-3.31958 30.5463,-2.09871 7.4958,0.81128 13.3529,10.73291 21.4526,12.49691 16.759,3.64982 35.0745,-1.83285 52,0.71704 6.43325,0.96924 10.98065,6.29394 17.33325,7.80354 M 514.31815,750.09149 c 14.7146,-1.01937 15.6367,22.66414 1.3313,24.38582 -15.8113,1.90291 -17.1837,-23.28751 -1.3313,-24.38582 m 390.6461,8.63786 c 10.1451,0.86279 8.7294,16.18001 -1.2943,15.22843 -9.9645,-0.94605 -8.9554,-16.10002 1.2943,-15.22843 m 114.99065,20.92187 c 8.7293,-3.74463 15.1072,9.05566 6.0782,12.8457 -8.5214,3.57682 -14.2651,-9.33366 -6.0782,-12.8457 m -432.16555,11.82617 c 9.8081,-2.31657 13.7955,12.86035 3.8035,14.88062 -9.8048,1.98234 -13.4919,-12.59245 -3.8035,-14.88062 m 266.5277,78.02978 c -6.1565,7.55998 -14.5922,19.72681 -24,23.19548 -6.5205,2.40413 -15.7958,0.80452 -22.6666,0.80452 -21.4519,0 -51.4839,-5.4742 -72,0.68522 -12.8181,3.84823 -17.3549,19.28516 -27.8457,26.12956 -9.4897,6.1914 -20.1785,-0.2688 -28.1944,11.87247 -15.2434,23.0883 9.4353,53.23641 34.7016,39.2356 18.7618,-10.39649 7.805,-23.05615 10.4424,-37.92285 1.1021,-6.21208 11.1257,-14.64014 16.2294,-17.86214 6.9002,-4.35604 18.8072,-2.13786 26.6667,-2.13786 21.7352,0 51.0774,5.21224 71.9948,-0.57821 13.1583,-3.64249 24.4319,-24.51155 33.5648,-34.03084 4.9147,-5.12272 11.9916,-7.71134 16.2418,-13.44857 9.6263,-12.9943 4.6323,-32.0874 -9.8014,-38.97737 -26.8479,-12.81592 -48.0044,25.24284 -25.3334,43.03499 m 97.3334,17.33333 c 7.3274,1.36036 15.4807,2.46045 22.6666,-0.17797 37.37825,-13.72421 13.4583,-71.3523 -24,-58.68311 -14.4572,4.88973 -20.7068,20.72144 -18.2283,34.86109 0.914,5.21468 5.4015,10.77986 2.6172,15.99999 -4.6583,8.73381 -14.861,16.62647 -21.4969,24 -12.6781,14.08773 -24.6284,28.91455 -37.6779,42.66048 -9.2724,9.76709 -19.3864,8.00619 -31.8807,8.00619 -20.2411,0 -47.0139,-4.66358 -66.5474,0.55859 -8.9462,2.39176 -15.2982,13.20768 -21.4577,19.44141 -15.9548,16.1468 -31.3456,33.93433 -48.1143,49.13583 -6.5024,5.8946 -13.6358,2.6919 -21.214,5.0679 -14.347,4.4981 -20.5181,21.5535 -16.2613,35.1295 5.6804,18.1162 30.9937,23.085 44.2027,10.5226 5.7478,-5.4664 9.0297,-13.1934 8.7788,-21.1893 -0.1497,-4.7719 -3.2244,-10.0844 -0.9702,-14.6666 3.7142,-7.5496 13.0219,-14.1051 18.9167,-19.9999 12.8519,-12.8519 25.9988,-32.16589 41.3333,-41.86218 6.8938,-4.35905 18.8121,-2.13785 26.6667,-2.13785 20.7825,0 44.9027,3.41992 65.3333,-0.30453 9.6613,-1.76123 17.2037,-14.04818 23.2315,-21.02881 16.9076,-19.58056 43.9697,-41.40299 54.1019,-65.33333 m -490.5895,-57.94335 c 9.4137,-1.6639 14.0971,12.97819 3.8652,14.77465 -9.1166,1.60067 -13.477,-13.07584 -3.8652,-14.77465 m 406.6626,14.68717 c 8.3577,-2.20963 12.2454,9.77376 3.7828,11.9856 -8.4948,2.22029 -12.4428,-9.69613 -3.7828,-11.9856 m 90.6141,2.7325 c 12.8042,-4.68937 22.119,14.92009 9.1729,20.71298 -13.8824,6.21183 -23.9945,-15.28475 -9.1729,-20.71298 m -333.3477,81.24699 c 9.2787,-1.61385 11.8531,12.52742 2.607,14.63981 -10.0313,2.29183 -12.2412,-12.96419 -2.607,-14.63981 m 75.9794,12.38061 c 9.911,-0.45695 10.0669,15.62036 0.029,15.62036 -9.8065,0 -9.597,-15.17919 -0.029,-15.62036 m 314.67995,16.01335 c 14.3612,1.18286 13.177,23.30607 -1.3323,22.45784 -14.65285,-0.85669 -13.0459,-23.64209 1.3323,-22.45784 m -109.33225,37.54939 h -60 c -8.559,0 -21.5452,-1.07698 -29.3138,2.90533 -10.4869,5.37581 -15.8975,18.80871 -25.5791,25.43831 -6.4569,4.4215 -14.7119,2.4275 -21.0494,7.9599 -21.3225,18.6132 -3.732,53.5798 23.9423,46.9865 12.7124,-3.0287 20.4405,-15.8994 18.2264,-28.6235 -0.6811,-3.9138 -4.7277,-8.862 -3.9249,-12.7675 1.4464,-7.0369 16.0573,-20.6166 23.0319,-21.7015 21.7775,-3.3876 54.2771,-3.5884 76,0.1019 10.3927,1.7655 16.5628,8.2946 28,7.643 12.1381,-0.6916 22.3813,-10.5127 23.7478,-22.60911 3.961,-35.06119 -51.2709,-40.15201 -53.0812,-5.33333 m 26.6667,-5.56274 c 10.3232,0.46899 9.2613,16.18578 -1.3138,15.23348 -10.2085,-0.9193 -8.3375,-15.67188 1.3138,-15.23348 m 155.99995,44.22928 c -0.1583,18.8856 -13.97,26.6655 -30.6667,31.43 -28.5458,8.146 -53.9664,4.2476 -82.66655,1.9034 v -2.6667 l 37.33325,-10.464 76,-20.2027 m -305.18925,11.4918 c 9.5646,-3.6555 14.3886,10.8616 5.1122,14.1266 -9.1398,3.2168 -14.0389,-10.7148 -5.1122,-14.1266 m -89.4527,1.2315 c 10.7435,-1.8116 13.761,14.4573 2.6369,16.0411 -10.4391,1.4864 -13.1824,-14.2629 -2.6369,-16.0411 m 383.97525,31.2767 c -15.519,42.3879 -77.7894,35.2452 -113.33325,27.7192 -9.0481,-1.9159 -30.1027,-12.5871 -38.464,-8.5042 -14.0323,6.8522 17.7476,20.0754 22.464,21.5371 30.2842,9.3859 56.87775,9.7075 87.99995,7.2479 v 1.3334 c -50.88785,33.6729 -106.89305,18.2566 -157.33325,-8.6534 -12.8634,-6.8626 -23.3624,-17.4795 -36,-24.68 v -2.6666 c 29.7953,-17.5716 64.4266,-24.4537 98.6666,-17.1729 19.9915,4.2511 37.893,12.3016 58.66665,14.2799 28.0811,2.6741 50.5869,-5.8379 77.3333,-10.4404 m -165.33325,118.6667 -19.7726,-0.8045 -18.3478,-20.5288 -36.5463,-36.4455 -36,-26.2212 c 7.2678,-1.7263 16.5702,-9.2755 24,-7.9249 8.3219,1.5127 17.5544,11.6642 24,16.8118 23.3378,18.6378 49.7512,47.9317 62.6667,75.1131 z"
           id="path1" /><text
           xml:space="preserve"
           style="font-size:666.667px;line-height:1.25;font-family:'Times New Roman';-inkscape-font-specification:'Times New Roman, Normal';font-variant-ligatures:none;letter-spacing:0px;word-spacing:0px;fill:#b44b27;fill-opacity:1"
           x="1243.642"
           y="916.60577"
           id="text1"><tspan
             sodipodi:role="line"
             id="tspan1"
             x="1243.642"
             y="916.60577"
             style="font-style:normal;font-variant:normal;font-weight:bold;font-stretch:normal;font-size:666.667px;font-family:Candara;-inkscape-font-specification:'Candara Bold';fill:#b44b27;fill-opacity:1">SANA-FE</tspan></text></g></g></g></svg>
